<svg xmlns="http://www.w3.org/2000/svg" xmlns:svg="http://www.w3.org/2000/svg" id="svg2" width="793.333" height="1122.667" version="1.1" viewBox="0 0 793.333 1122.667" xml:space="preserve"><metadata id="metadata8"/><defs id="defs6"><marker id="Arrow1Lend" orient="auto" refX="0" refY="0" style="overflow:visible"><path id="path934" d="M 0.0,0.0 L 5.0,-5.0 L -12.5,0.0 L 5.0,5.0 L 0.0,0.0 z" transform="scale(0.8) rotate(180) translate(12.5,0)" style="fill-rule:evenodd;stroke:#000;stroke-width:1pt;stroke-opacity:1;fill:#000;fill-opacity:1"/></marker><clipPath id="clipPath20" clipPathUnits="userSpaceOnUse"><path id="path18" d="M 1884.86,3398.63 H 4242.63 V 4528.86 H 1884.86 Z"/></clipPath><marker id="Arrow1Lend-3" orient="auto" refX="0" refY="0" style="overflow:visible"><path id="path934-6" d="M 0,0 5,-5 -12.5,0 5,5 Z" transform="matrix(-0.8,0,0,-0.8,-10,0)" style="fill:#000;fill-opacity:1;fill-rule:evenodd;stroke:#000;stroke-width:1.00000003pt;stroke-opacity:1"/></marker></defs><g id="g10" transform="matrix(1.3333333,0,0,-1.3333333,0,1122.6667)"><g id="g12" transform="scale(0.1)"><g id="g14"><g id="g16" clip-path="url(#clipPath20)"><path style="fill:none;stroke:#000;stroke-width:7.48500013;stroke-linecap:square;stroke-linejoin:round;stroke-miterlimit:10;stroke-dasharray:none;stroke-opacity:1" id="path22" d="m 2693.23,4244.43 h 247.01 l 29.94,-29.94 v -112.28 h -276.95 v 142.22"/><path style="fill:#000;fill-opacity:1;fill-rule:nonzero;stroke:none" id="path24" d="m 2693.23,4102.21 h 52.3945 v 14.9688 H 2693.23 Z"/><path style="fill:none;stroke:#000;stroke-width:7.48500013;stroke-linecap:square;stroke-linejoin:miter;stroke-miterlimit:10;stroke-dasharray:none;stroke-opacity:1" id="path26" d="m 2693.23,4102.21 h 52.3945 v 14.9688 H 2693.23 Z"/><g id="g28" transform="scale(10)"><text style="font-variant:normal;font-weight:700;font-size:8.60774994px;font-family:'Courier 10 Pitch';-inkscape-font-specification:Courier-Bold;writing-mode:lr-tb;fill:#000;fill-opacity:1;fill-rule:nonzero;stroke:none" id="text32" transform="matrix(1,0,0,-1,270.821,414.11)"><tspan id="tspan30" x="0" y="0">0</tspan></text></g><path style="fill:none;stroke:#000;stroke-width:7.48500013;stroke-linecap:square;stroke-linejoin:round;stroke-miterlimit:10;stroke-dasharray:none;stroke-opacity:1" id="path34" d="m 2693.23,4057.3 h 239.52 v -149.69 h -239.52 v 149.69"/><path style="fill:#000;fill-opacity:1;fill-rule:nonzero;stroke:none" id="path36" d="m 2693.23,3907.61 h 52.3945 v 14.9688 H 2693.23 Z"/><path style="fill:none;stroke:#000;stroke-width:7.48500013;stroke-linecap:square;stroke-linejoin:miter;stroke-miterlimit:10;stroke-dasharray:none;stroke-opacity:1" id="path38" d="m 2693.23,3907.61 h 52.3945 v 14.9688 H 2693.23 Z"/><path style="fill:#000;fill-opacity:1;fill-rule:nonzero;stroke:none" id="path40" d="m 2693.23,4042.34 h 52.3945 v 14.9688 H 2693.23 Z"/><path style="fill:none;stroke:#000;stroke-width:7.48500013;stroke-linecap:square;stroke-linejoin:miter;stroke-miterlimit:10;stroke-dasharray:none;stroke-opacity:1" id="path42" d="m 2693.23,4042.34 h 52.3945 v 14.9688 H 2693.23 Z"/><path style="fill:#000;fill-opacity:1;fill-rule:nonzero;stroke:none" id="path44" d="m 2880.36,4042.34 h 52.3945 v 14.9688 H 2880.36 Z"/><path style="fill:none;stroke:#000;stroke-width:7.48500013;stroke-linecap:square;stroke-linejoin:miter;stroke-miterlimit:10;stroke-dasharray:none;stroke-opacity:1" id="path46" d="m 2880.36,4042.34 h 52.3945 v 14.9688 H 2880.36 Z"/><g id="g48" transform="scale(10)"><text style="font-variant:normal;font-weight:700;font-size:8.60774994px;font-family:'Courier 10 Pitch';-inkscape-font-specification:Courier-Bold;writing-mode:lr-tb;fill:#000;fill-opacity:1;fill-rule:nonzero;stroke:none" id="text56" transform="matrix(1,0,0,-1,270.821,395.397)"><tspan id="tspan50" x="0 5.165 10.329 15.494" y="0">/ 10</tspan><tspan id="tspan52" x="32.185 37.35 42.514 47.679 52.844 58.008 63.173 68.338 73.502 78.667 83.832" y="-20.958">decay speed</tspan><tspan id="tspan54" x="32.185 37.35 42.514 47.679 52.844 58.008 63.173 68.338 73.502 78.667 83.832 88.996 94.161 99.326 104.49 109.655" y="-9.731">(10ths of a Hz.)</tspan></text></g><path style="fill:none;stroke:#000;stroke-width:7.48500013;stroke-linecap:square;stroke-linejoin:round;stroke-miterlimit:10;stroke-dasharray:none;stroke-opacity:1" id="path58" d="m 2101.92,4034.85 h 239.52 v -149.7 h -239.52 v 149.7"/><path style="fill:#000;fill-opacity:1;fill-rule:nonzero;stroke:none" id="path60" d="m 2101.92,3885.15 h 52.3945 v 14.9727 H 2101.92 Z"/><path style="fill:none;stroke:#000;stroke-width:7.48500013;stroke-linecap:square;stroke-linejoin:miter;stroke-miterlimit:10;stroke-dasharray:none;stroke-opacity:1" id="path62" d="m 2101.92,3885.15 h 52.3945 v 14.9727 H 2101.92 Z"/><path style="fill:#000;fill-opacity:1;fill-rule:nonzero;stroke:none" id="path64" d="m 2101.92,4019.88 h 52.3945 v 14.9727 H 2101.92 Z"/><path style="fill:none;stroke:#000;stroke-width:7.48500013;stroke-linecap:square;stroke-linejoin:miter;stroke-miterlimit:10;stroke-dasharray:none;stroke-opacity:1" id="path66" d="m 2101.92,4019.88 h 52.3945 v 14.9727 H 2101.92 Z"/><g id="g68" transform="scale(10)"><text style="font-variant:normal;font-weight:700;font-size:8.60774994px;font-family:'Courier 10 Pitch';-inkscape-font-specification:Courier-Bold;writing-mode:lr-tb;fill:#000;fill-opacity:1;fill-rule:nonzero;stroke:none" id="text72" transform="matrix(1,0,0,-1,211.689,393.152)"><tspan id="tspan70" x="0 5.165 10.329 15.494" y="0">abs~</tspan></text></g><path style="fill:none;stroke:#000;stroke-width:7.48500013;stroke-linecap:square;stroke-linejoin:round;stroke-miterlimit:10;stroke-dasharray:none;stroke-opacity:1" id="path74" d="m 2109.41,3840.24 h 1025.44 v -149.7 H 2109.41 v 149.7"/><path style="fill:#000;fill-opacity:1;fill-rule:nonzero;stroke:none" id="path76" d="m 2109.41,3690.54 h 52.3945 v 14.9727 H 2109.41 Z"/><path style="fill:none;stroke:#000;stroke-width:7.48500013;stroke-linecap:square;stroke-linejoin:miter;stroke-miterlimit:10;stroke-dasharray:none;stroke-opacity:1" id="path78" d="m 2109.41,3690.54 h 52.3945 v 14.9727 H 2109.41 Z"/><path style="fill:#000;fill-opacity:1;fill-rule:nonzero;stroke:none" id="path80" d="m 2109.41,3825.27 h 52.3945 v 14.9688 H 2109.41 Z"/><path style="fill:none;stroke:#000;stroke-width:7.48500013;stroke-linecap:square;stroke-linejoin:miter;stroke-miterlimit:10;stroke-dasharray:none;stroke-opacity:1" id="path82" d="m 2109.41,3825.27 h 52.3945 v 14.9688 H 2109.41 Z"/><path style="fill:#000;fill-opacity:1;fill-rule:nonzero;stroke:none" id="path84" d="m 2304.02,3825.27 h 52.3945 v 14.9688 H 2304.02 Z"/><path style="fill:none;stroke:#000;stroke-width:7.48500013;stroke-linecap:square;stroke-linejoin:miter;stroke-miterlimit:10;stroke-dasharray:none;stroke-opacity:1" id="path86" d="m 2304.02,3825.27 h 52.3945 v 14.9688 H 2304.02 Z"/><path style="fill:#000;fill-opacity:1;fill-rule:nonzero;stroke:none" id="path88" d="m 2498.63,3825.27 h 52.3945 v 14.9688 H 2498.63 Z"/><path style="fill:none;stroke:#000;stroke-width:7.48500013;stroke-linecap:square;stroke-linejoin:miter;stroke-miterlimit:10;stroke-dasharray:none;stroke-opacity:1" id="path90" d="m 2498.63,3825.27 h 52.3945 v 14.9688 H 2498.63 Z"/><path style="fill:#000;fill-opacity:1;fill-rule:nonzero;stroke:none" id="path92" d="m 2693.23,3825.27 h 52.3945 v 14.9688 H 2693.23 Z"/><path style="fill:none;stroke:#000;stroke-width:7.48500013;stroke-linecap:square;stroke-linejoin:miter;stroke-miterlimit:10;stroke-dasharray:none;stroke-opacity:1" id="path94" d="m 2693.23,3825.27 h 52.3945 v 14.9688 H 2693.23 Z"/><path style="fill:#000;fill-opacity:1;fill-rule:nonzero;stroke:none" id="path96" d="m 2887.84,3825.27 h 52.3945 v 14.9688 H 2887.84 Z"/><path style="fill:none;stroke:#000;stroke-width:7.48500013;stroke-linecap:square;stroke-linejoin:miter;stroke-miterlimit:10;stroke-dasharray:none;stroke-opacity:1" id="path98" d="m 2887.84,3825.27 h 52.3945 v 14.9688 H 2887.84 Z"/><path style="fill:#000;fill-opacity:1;fill-rule:nonzero;stroke:none" id="path100" d="m 3082.46,3825.27 h 52.3945 v 14.9688 H 3082.46 Z"/><path style="fill:none;stroke:#000;stroke-width:7.48500013;stroke-linecap:square;stroke-linejoin:miter;stroke-miterlimit:10;stroke-dasharray:none;stroke-opacity:1" id="path102" d="m 3082.46,3825.27 h 52.3945 v 14.9688 H 3082.46 Z"/><g id="g104" transform="scale(10)"><text style="font-variant:normal;font-weight:700;font-size:8.60774994px;font-family:'Courier 10 Pitch';-inkscape-font-specification:Courier-Bold;writing-mode:lr-tb;fill:#000;fill-opacity:1;fill-rule:nonzero;stroke:none" id="text108" transform="matrix(1,0,0,-1,212.438,373.691)"><tspan id="tspan106" x="0 5.165 10.329 15.494 20.659 25.823 30.988 36.153 41.317 46.482 51.647 56.811 61.976 67.14 72.305 77.47 82.634 87.799 92.964" y="0">slop~ 0 0 0 0 1e+09</tspan></text></g><path style="fill:none;stroke:#000;stroke-width:7.48500013;stroke-linecap:butt;stroke-linejoin:round;stroke-miterlimit:10;stroke-dasharray:none;stroke-opacity:1" id="path110" d="m 2715.69,4109.7 v -59.88"/><path style="fill:none;stroke:#000;stroke-width:7.48500013;stroke-linecap:butt;stroke-linejoin:round;stroke-miterlimit:10;stroke-dasharray:none;stroke-opacity:1" id="path112" d="m 2715.69,3915.09 v -82.34"/><path style="fill:none;stroke:#000;stroke-width:14.97000027;stroke-linecap:butt;stroke-linejoin:round;stroke-miterlimit:10;stroke-dasharray:none;stroke-opacity:1" id="path114" d="m 2124.38,3892.64 7.48,-59.89"/></g></g></g><text style="font-style:normal;font-variant:normal;font-weight:400;font-stretch:normal;font-size:12px;line-height:1.25;font-family:sans-serif;-inkscape-font-specification:sans-serif;letter-spacing:0;word-spacing:0;fill:#000;fill-opacity:1;stroke:none;stroke-width:.75" id="text923" x="208.132" y="-435.816" transform="scale(1,-1)" xml:space="preserve"><tspan id="tspan921" x="208.132" y="-435.816" style="font-style:normal;font-variant:normal;font-weight:400;font-stretch:normal;font-family:sans-serif;-inkscape-font-specification:sans-serif;stroke-width:.75">in</tspan></text><text style="font-style:normal;font-variant:normal;font-weight:400;font-stretch:normal;font-size:12px;line-height:1.25;font-family:sans-serif;-inkscape-font-specification:sans-serif;letter-spacing:0;word-spacing:0;fill:#000;fill-opacity:1;stroke:none;stroke-width:.75" id="text927" x="204.979" y="-333.642" transform="scale(1,-1)" xml:space="preserve"><tspan id="tspan925" x="204.979" y="-333.642" style="font-style:normal;font-variant:normal;font-weight:400;font-stretch:normal;font-family:sans-serif;-inkscape-font-specification:sans-serif;stroke-width:.75">out</tspan></text><path style="fill:none;stroke:#000;stroke-width:.75px;stroke-linecap:butt;stroke-linejoin:miter;stroke-opacity:1;marker-end:url(#Arrow1Lend)" id="path929" d="m 212.54703,429.50895 v -18.9211"/><path style="fill:none;stroke:#000;stroke-width:.75px;stroke-linecap:butt;stroke-linejoin:miter;stroke-opacity:1;marker-end:url(#Arrow1Lend-3)" id="path929-7" d="m 213.46381,364.00838 v -18.9211"/></g></svg>