<svg xmlns="http://www.w3.org/2000/svg" xmlns:svg="http://www.w3.org/2000/svg" id="svg2" width="793.333" height="1122.667" version="1.1" viewBox="0 0 793.333 1122.667" xml:space="preserve"><metadata id="metadata8"/><defs id="defs6"><clipPath id="clipPath20" clipPathUnits="userSpaceOnUse"><path id="path18" d="M 1375.88,3024.38 H 4744.13 V 4895.63 H 1375.88 Z"/></clipPath><marker id="Arrow1Lstart" orient="auto" refX="0" refY="0" style="overflow:visible"><path id="path4077" d="M 0,0 5,-5 -12.5,0 5,5 Z" transform="matrix(0.8,0,0,0.8,10,0)" style="fill:#000;fill-opacity:1;fill-rule:evenodd;stroke:#000;stroke-width:1.00000003pt;stroke-opacity:1"/></marker><marker id="Arrow1Lend" orient="auto" refX="0" refY="0" style="overflow:visible"><path id="path4080" d="M 0,0 5,-5 -12.5,0 5,5 Z" transform="matrix(-0.8,0,0,-0.8,-10,0)" style="fill:#000;fill-opacity:1;fill-rule:evenodd;stroke:#000;stroke-width:1.00000003pt;stroke-opacity:1"/></marker><marker id="Arrow1Lstart-3" orient="auto" refX="0" refY="0" style="overflow:visible"><path id="path4077-6" d="M 0,0 5,-5 -12.5,0 5,5 Z" transform="matrix(0.8,0,0,0.8,10,0)" style="fill:#000;fill-opacity:1;fill-rule:evenodd;stroke:#000;stroke-width:1.00000003pt;stroke-opacity:1"/></marker><marker id="Arrow1Lend-7" orient="auto" refX="0" refY="0" style="overflow:visible"><path id="path4080-5" d="M 0,0 5,-5 -12.5,0 5,5 Z" transform="matrix(-0.8,0,0,-0.8,-10,0)" style="fill:#000;fill-opacity:1;fill-rule:evenodd;stroke:#000;stroke-width:1.00000003pt;stroke-opacity:1"/></marker></defs><g id="g10" transform="matrix(1.3333333,0,0,-1.3333333,0,1122.6667)"><g id="g12" transform="scale(0.1)"><g id="g14"><g id="g16" clip-path="url(#clipPath20)"><path style="fill:#000;fill-opacity:1;fill-rule:nonzero;stroke:none" id="path22" d="m 1375.88,3945.03 h 29.9414 v 14.9688 H 1375.88 Z"/><path style="fill:none;stroke:#000;stroke-width:7.5;stroke-linecap:square;stroke-linejoin:miter;stroke-miterlimit:10;stroke-dasharray:none;stroke-opacity:1" id="path24" d="m 1375.88,3945.03 h 29.9414 v 14.9688 H 1375.88 Z"/><path style="fill:#000;fill-opacity:1;fill-rule:nonzero;stroke:none" id="path26" d="m 1405.82,3945.03 h 37.4219 v 14.9688 H 1405.82 Z"/><path style="fill:none;stroke:#000;stroke-width:7.5;stroke-linecap:square;stroke-linejoin:miter;stroke-miterlimit:10;stroke-dasharray:none;stroke-opacity:1" id="path28" d="m 1405.82,3945.03 h 37.4219 v 14.9688 H 1405.82 Z"/><path style="fill:#000;fill-opacity:1;fill-rule:nonzero;stroke:none" id="path30" d="m 1443.24,3945.03 h 29.9414 v 14.9688 H 1443.24 Z"/><path style="fill:none;stroke:#000;stroke-width:7.5;stroke-linecap:square;stroke-linejoin:miter;stroke-miterlimit:10;stroke-dasharray:none;stroke-opacity:1" id="path32" d="m 1443.24,3945.03 h 29.9414 v 14.9688 H 1443.24 Z"/><path style="fill:#000;fill-opacity:1;fill-rule:nonzero;stroke:none" id="path34" d="m 1473.18,3945.03 h 37.4258 v 14.9688 H 1473.18 Z"/><path style="fill:none;stroke:#000;stroke-width:7.5;stroke-linecap:square;stroke-linejoin:miter;stroke-miterlimit:10;stroke-dasharray:none;stroke-opacity:1" id="path36" d="m 1473.18,3945.03 h 37.4258 v 14.9688 H 1473.18 Z"/><path style="fill:#000;fill-opacity:1;fill-rule:nonzero;stroke:none" id="path38" d="m 1510.61,3945.03 h 29.9414 v 14.9688 H 1510.61 Z"/><path style="fill:none;stroke:#000;stroke-width:7.5;stroke-linecap:square;stroke-linejoin:miter;stroke-miterlimit:10;stroke-dasharray:none;stroke-opacity:1" id="path40" d="m 1510.61,3945.03 h 29.9414 v 14.9688 H 1510.61 Z"/><path style="fill:#000;fill-opacity:1;fill-rule:nonzero;stroke:none" id="path42" d="m 1540.55,3945.03 h 37.4219 v 14.9688 H 1540.55 Z"/><path style="fill:none;stroke:#000;stroke-width:7.5;stroke-linecap:square;stroke-linejoin:miter;stroke-miterlimit:10;stroke-dasharray:none;stroke-opacity:1" id="path44" d="m 1540.55,3945.03 h 37.4219 v 14.9688 H 1540.55 Z"/><path style="fill:#000;fill-opacity:1;fill-rule:nonzero;stroke:none" id="path46" d="m 1577.97,3945.03 h 29.9414 v 14.9688 H 1577.97 Z"/><path style="fill:none;stroke:#000;stroke-width:7.5;stroke-linecap:square;stroke-linejoin:miter;stroke-miterlimit:10;stroke-dasharray:none;stroke-opacity:1" id="path48" d="m 1577.97,3945.03 h 29.9414 v 14.9688 H 1577.97 Z"/><path style="fill:#000;fill-opacity:1;fill-rule:nonzero;stroke:none" id="path50" d="m 1607.91,3945.03 h 37.4258 v 14.9688 H 1607.91 Z"/><path style="fill:none;stroke:#000;stroke-width:7.5;stroke-linecap:square;stroke-linejoin:miter;stroke-miterlimit:10;stroke-dasharray:none;stroke-opacity:1" id="path52" d="m 1607.91,3945.03 h 37.4258 v 14.9688 H 1607.91 Z"/><path style="fill:#000;fill-opacity:1;fill-rule:nonzero;stroke:none" id="path54" d="m 1645.34,3945.03 h 29.9375 v 14.9688 H 1645.34 Z"/><path style="fill:none;stroke:#000;stroke-width:7.5;stroke-linecap:square;stroke-linejoin:miter;stroke-miterlimit:10;stroke-dasharray:none;stroke-opacity:1" id="path56" d="m 1645.34,3945.03 h 29.9375 v 14.9688 H 1645.34 Z"/><path style="fill:#000;fill-opacity:1;fill-rule:nonzero;stroke:none" id="path58" d="m 1675.27,4880.66 h 37.4258 v 14.9688 H 1675.27 Z"/><path style="fill:none;stroke:#000;stroke-width:7.5;stroke-linecap:square;stroke-linejoin:miter;stroke-miterlimit:10;stroke-dasharray:none;stroke-opacity:1" id="path60" d="m 1675.27,4880.66 h 37.4258 v 14.9688 H 1675.27 Z"/><path style="fill:#000;fill-opacity:1;fill-rule:nonzero;stroke:none" id="path62" d="m 1712.7,4880.66 h 29.9414 v 14.9688 H 1712.7 Z"/><path style="fill:none;stroke:#000;stroke-width:7.5;stroke-linecap:square;stroke-linejoin:miter;stroke-miterlimit:10;stroke-dasharray:none;stroke-opacity:1" id="path64" d="m 1712.7,4880.66 h 29.9414 v 14.9688 H 1712.7 Z"/><path style="fill:#000;fill-opacity:1;fill-rule:nonzero;stroke:none" id="path66" d="m 1742.64,4880.66 h 37.4258 v 14.9688 H 1742.64 Z"/><path style="fill:none;stroke:#000;stroke-width:7.5;stroke-linecap:square;stroke-linejoin:miter;stroke-miterlimit:10;stroke-dasharray:none;stroke-opacity:1" id="path68" d="m 1742.64,4880.66 h 37.4258 v 14.9688 H 1742.64 Z"/><path style="fill:#000;fill-opacity:1;fill-rule:nonzero;stroke:none" id="path70" d="m 1780.07,4880.66 h 29.9375 v 14.9688 H 1780.07 Z"/><path style="fill:none;stroke:#000;stroke-width:7.5;stroke-linecap:square;stroke-linejoin:miter;stroke-miterlimit:10;stroke-dasharray:none;stroke-opacity:1" id="path72" d="m 1780.07,4880.66 h 29.9375 v 14.9688 H 1780.07 Z"/><path style="fill:#000;fill-opacity:1;fill-rule:nonzero;stroke:none" id="path74" d="m 1810,4880.66 h 37.4258 v 14.9688 H 1810 Z"/><path style="fill:none;stroke:#000;stroke-width:7.5;stroke-linecap:square;stroke-linejoin:miter;stroke-miterlimit:10;stroke-dasharray:none;stroke-opacity:1" id="path76" d="m 1810,4880.66 h 37.4258 v 14.9688 H 1810 Z"/><path style="fill:#000;fill-opacity:1;fill-rule:nonzero;stroke:none" id="path78" d="m 1847.43,4880.66 h 29.9414 v 14.9688 H 1847.43 Z"/><path style="fill:none;stroke:#000;stroke-width:7.5;stroke-linecap:square;stroke-linejoin:miter;stroke-miterlimit:10;stroke-dasharray:none;stroke-opacity:1" id="path80" d="m 1847.43,4880.66 h 29.9414 v 14.9688 H 1847.43 Z"/><path style="fill:#000;fill-opacity:1;fill-rule:nonzero;stroke:none" id="path82" d="m 1877.37,4880.66 h 37.4258 v 14.9688 H 1877.37 Z"/><path style="fill:none;stroke:#000;stroke-width:7.5;stroke-linecap:square;stroke-linejoin:miter;stroke-miterlimit:10;stroke-dasharray:none;stroke-opacity:1" id="path84" d="m 1877.37,4880.66 h 37.4258 v 14.9688 H 1877.37 Z"/><path style="fill:#000;fill-opacity:1;fill-rule:nonzero;stroke:none" id="path86" d="m 1914.8,4880.66 h 29.9375 v 14.9688 H 1914.8 Z"/><path style="fill:none;stroke:#000;stroke-width:7.5;stroke-linecap:square;stroke-linejoin:miter;stroke-miterlimit:10;stroke-dasharray:none;stroke-opacity:1" id="path88" d="m 1914.8,4880.66 h 29.9375 v 14.9688 H 1914.8 Z"/><path style="fill:#000;fill-opacity:1;fill-rule:nonzero;stroke:none" id="path90" d="m 1944.73,4880.66 h 37.4258 v 14.9688 H 1944.73 Z"/><path style="fill:none;stroke:#000;stroke-width:7.5;stroke-linecap:square;stroke-linejoin:miter;stroke-miterlimit:10;stroke-dasharray:none;stroke-opacity:1" id="path92" d="m 1944.73,4880.66 h 37.4258 v 14.9688 H 1944.73 Z"/><path style="fill:#000;fill-opacity:1;fill-rule:nonzero;stroke:none" id="path94" d="m 1982.16,4880.66 h 29.9414 v 14.9688 H 1982.16 Z"/><path style="fill:none;stroke:#000;stroke-width:7.5;stroke-linecap:square;stroke-linejoin:miter;stroke-miterlimit:10;stroke-dasharray:none;stroke-opacity:1" id="path96" d="m 1982.16,4880.66 h 29.9414 v 14.9688 H 1982.16 Z"/><path style="fill:#000;fill-opacity:1;fill-rule:nonzero;stroke:none" id="path98" d="m 2012.1,4880.66 h 37.4219 v 14.9688 H 2012.1 Z"/><path style="fill:none;stroke:#000;stroke-width:7.5;stroke-linecap:square;stroke-linejoin:miter;stroke-miterlimit:10;stroke-dasharray:none;stroke-opacity:1" id="path100" d="m 2012.1,4880.66 h 37.4219 v 14.9688 H 2012.1 Z"/><path style="fill:#000;fill-opacity:1;fill-rule:nonzero;stroke:none" id="path102" d="m 2049.52,4880.66 h 29.9414 v 14.9688 H 2049.52 Z"/><path style="fill:none;stroke:#000;stroke-width:7.5;stroke-linecap:square;stroke-linejoin:miter;stroke-miterlimit:10;stroke-dasharray:none;stroke-opacity:1" id="path104" d="m 2049.52,4880.66 h 29.9414 v 14.9688 H 2049.52 Z"/><path style="fill:#000;fill-opacity:1;fill-rule:nonzero;stroke:none" id="path106" d="m 2079.46,4880.66 h 37.4258 v 14.9688 H 2079.46 Z"/><path style="fill:none;stroke:#000;stroke-width:7.5;stroke-linecap:square;stroke-linejoin:miter;stroke-miterlimit:10;stroke-dasharray:none;stroke-opacity:1" id="path108" d="m 2079.46,4880.66 h 37.4258 v 14.9688 H 2079.46 Z"/><path style="fill:#000;fill-opacity:1;fill-rule:nonzero;stroke:none" id="path110" d="m 2116.89,4880.66 h 29.9414 v 14.9688 H 2116.89 Z"/><path style="fill:none;stroke:#000;stroke-width:7.5;stroke-linecap:square;stroke-linejoin:miter;stroke-miterlimit:10;stroke-dasharray:none;stroke-opacity:1" id="path112" d="m 2116.89,4880.66 h 29.9414 v 14.9688 H 2116.89 Z"/><path style="fill:#000;fill-opacity:1;fill-rule:nonzero;stroke:none" id="path114" d="m 2146.83,4880.66 h 37.4219 v 14.9688 H 2146.83 Z"/><path style="fill:none;stroke:#000;stroke-width:7.5;stroke-linecap:square;stroke-linejoin:miter;stroke-miterlimit:10;stroke-dasharray:none;stroke-opacity:1" id="path116" d="m 2146.83,4880.66 h 37.4219 v 14.9688 H 2146.83 Z"/><path style="fill:#000;fill-opacity:1;fill-rule:nonzero;stroke:none" id="path118" d="m 2184.25,4880.66 h 29.9414 v 14.9688 H 2184.25 Z"/><path style="fill:none;stroke:#000;stroke-width:7.5;stroke-linecap:square;stroke-linejoin:miter;stroke-miterlimit:10;stroke-dasharray:none;stroke-opacity:1" id="path120" d="m 2184.25,4880.66 h 29.9414 v 14.9688 H 2184.25 Z"/><path style="fill:#000;fill-opacity:1;fill-rule:nonzero;stroke:none" id="path122" d="m 2214.2,4880.66 h 37.4258 v 14.9688 H 2214.2 Z"/><path style="fill:none;stroke:#000;stroke-width:7.5;stroke-linecap:square;stroke-linejoin:miter;stroke-miterlimit:10;stroke-dasharray:none;stroke-opacity:1" id="path124" d="m 2214.2,4880.66 h 37.4258 v 14.9688 H 2214.2 Z"/><path style="fill:#000;fill-opacity:1;fill-rule:nonzero;stroke:none" id="path126" d="m 2251.62,4880.66 h 29.9375 v 14.9688 H 2251.62 Z"/><path style="fill:none;stroke:#000;stroke-width:7.5;stroke-linecap:square;stroke-linejoin:miter;stroke-miterlimit:10;stroke-dasharray:none;stroke-opacity:1" id="path128" d="m 2251.62,4880.66 h 29.9375 v 14.9688 H 2251.62 Z"/><path style="fill:#000;fill-opacity:1;fill-rule:nonzero;stroke:none" id="path130" d="m 2281.56,4880.66 h 37.4258 v 14.9688 H 2281.56 Z"/><path style="fill:none;stroke:#000;stroke-width:7.5;stroke-linecap:square;stroke-linejoin:miter;stroke-miterlimit:10;stroke-dasharray:none;stroke-opacity:1" id="path132" d="m 2281.56,4880.66 h 37.4258 v 14.9688 H 2281.56 Z"/><path style="fill:#000;fill-opacity:1;fill-rule:nonzero;stroke:none" id="path134" d="m 2318.98,4880.66 h 29.9414 v 14.9688 H 2318.98 Z"/><path style="fill:none;stroke:#000;stroke-width:7.5;stroke-linecap:square;stroke-linejoin:miter;stroke-miterlimit:10;stroke-dasharray:none;stroke-opacity:1" id="path136" d="m 2318.98,4880.66 h 29.9414 v 14.9688 H 2318.98 Z"/><path style="fill:#000;fill-opacity:1;fill-rule:nonzero;stroke:none" id="path138" d="m 2348.93,4880.66 h 37.4258 v 14.9688 H 2348.93 Z"/><path style="fill:none;stroke:#000;stroke-width:7.5;stroke-linecap:square;stroke-linejoin:miter;stroke-miterlimit:10;stroke-dasharray:none;stroke-opacity:1" id="path140" d="m 2348.93,4880.66 h 37.4258 v 14.9688 H 2348.93 Z"/><path style="fill:#000;fill-opacity:1;fill-rule:nonzero;stroke:none" id="path142" d="m 2386.35,4880.66 h 29.9375 v 14.9688 H 2386.35 Z"/><path style="fill:none;stroke:#000;stroke-width:7.5;stroke-linecap:square;stroke-linejoin:miter;stroke-miterlimit:10;stroke-dasharray:none;stroke-opacity:1" id="path144" d="m 2386.35,4880.66 h 29.9375 v 14.9688 H 2386.35 Z"/><path style="fill:#000;fill-opacity:1;fill-rule:nonzero;stroke:none" id="path146" d="m 2416.29,4880.66 h 37.4258 v 14.9688 H 2416.29 Z"/><path style="fill:none;stroke:#000;stroke-width:7.5;stroke-linecap:square;stroke-linejoin:miter;stroke-miterlimit:10;stroke-dasharray:none;stroke-opacity:1" id="path148" d="m 2416.29,4880.66 h 37.4258 v 14.9688 H 2416.29 Z"/><path style="fill:#000;fill-opacity:1;fill-rule:nonzero;stroke:none" id="path150" d="m 2453.71,4880.66 h 29.9414 v 14.9688 H 2453.71 Z"/><path style="fill:none;stroke:#000;stroke-width:7.5;stroke-linecap:square;stroke-linejoin:miter;stroke-miterlimit:10;stroke-dasharray:none;stroke-opacity:1" id="path152" d="m 2453.71,4880.66 h 29.9414 v 14.9688 H 2453.71 Z"/><path style="fill:#000;fill-opacity:1;fill-rule:nonzero;stroke:none" id="path154" d="m 2483.66,4880.66 h 37.4219 v 14.9688 H 2483.66 Z"/><path style="fill:none;stroke:#000;stroke-width:7.5;stroke-linecap:square;stroke-linejoin:miter;stroke-miterlimit:10;stroke-dasharray:none;stroke-opacity:1" id="path156" d="m 2483.66,4880.66 h 37.4219 v 14.9688 H 2483.66 Z"/><path style="fill:#000;fill-opacity:1;fill-rule:nonzero;stroke:none" id="path158" d="m 2521.08,4880.66 h 29.9375 v 14.9688 H 2521.08 Z"/><path style="fill:none;stroke:#000;stroke-width:7.5;stroke-linecap:square;stroke-linejoin:miter;stroke-miterlimit:10;stroke-dasharray:none;stroke-opacity:1" id="path160" d="m 2521.08,4880.66 h 29.9375 v 14.9688 H 2521.08 Z"/><path style="fill:#000;fill-opacity:1;fill-rule:nonzero;stroke:none" id="path162" d="m 2551.02,4880.66 h 37.4258 v 14.9688 H 2551.02 Z"/><path style="fill:none;stroke:#000;stroke-width:7.5;stroke-linecap:square;stroke-linejoin:miter;stroke-miterlimit:10;stroke-dasharray:none;stroke-opacity:1" id="path164" d="m 2551.02,4880.66 h 37.4258 v 14.9688 H 2551.02 Z"/><path style="fill:#000;fill-opacity:1;fill-rule:nonzero;stroke:none" id="path166" d="m 2588.45,4880.66 h 29.9414 v 14.9688 H 2588.45 Z"/><path style="fill:none;stroke:#000;stroke-width:7.5;stroke-linecap:square;stroke-linejoin:miter;stroke-miterlimit:10;stroke-dasharray:none;stroke-opacity:1" id="path168" d="m 2588.45,4880.66 h 29.9414 v 14.9688 H 2588.45 Z"/><path style="fill:#000;fill-opacity:1;fill-rule:nonzero;stroke:none" id="path170" d="m 2618.39,4880.66 h 37.4219 v 14.9688 H 2618.39 Z"/><path style="fill:none;stroke:#000;stroke-width:7.5;stroke-linecap:square;stroke-linejoin:miter;stroke-miterlimit:10;stroke-dasharray:none;stroke-opacity:1" id="path172" d="m 2618.39,4880.66 h 37.4219 v 14.9688 H 2618.39 Z"/><path style="fill:#000;fill-opacity:1;fill-rule:nonzero;stroke:none" id="path174" d="m 2655.81,4880.66 h 29.9414 v 14.9688 H 2655.81 Z"/><path style="fill:none;stroke:#000;stroke-width:7.5;stroke-linecap:square;stroke-linejoin:miter;stroke-miterlimit:10;stroke-dasharray:none;stroke-opacity:1" id="path176" d="m 2655.81,4880.66 h 29.9414 v 14.9688 H 2655.81 Z"/><path style="fill:#000;fill-opacity:1;fill-rule:nonzero;stroke:none" id="path178" d="m 2685.75,4880.66 h 37.4258 v 14.9688 H 2685.75 Z"/><path style="fill:none;stroke:#000;stroke-width:7.5;stroke-linecap:square;stroke-linejoin:miter;stroke-miterlimit:10;stroke-dasharray:none;stroke-opacity:1" id="path180" d="m 2685.75,4880.66 h 37.4258 v 14.9688 H 2685.75 Z"/><path style="fill:#000;fill-opacity:1;fill-rule:nonzero;stroke:none" id="path182" d="m 2723.18,4880.66 h 29.9375 v 14.9688 H 2723.18 Z"/><path style="fill:none;stroke:#000;stroke-width:7.5;stroke-linecap:square;stroke-linejoin:miter;stroke-miterlimit:10;stroke-dasharray:none;stroke-opacity:1" id="path184" d="m 2723.18,4880.66 h 29.9375 v 14.9688 H 2723.18 Z"/><path style="fill:#000;fill-opacity:1;fill-rule:nonzero;stroke:none" id="path186" d="m 2753.12,4880.66 h 37.4219 v 14.9688 H 2753.12 Z"/><path style="fill:none;stroke:#000;stroke-width:7.5;stroke-linecap:square;stroke-linejoin:miter;stroke-miterlimit:10;stroke-dasharray:none;stroke-opacity:1" id="path188" d="m 2753.12,4880.66 h 37.4219 v 14.9688 H 2753.12 Z"/><path style="fill:#000;fill-opacity:1;fill-rule:nonzero;stroke:none" id="path190" d="m 2790.54,4880.66 h 29.9414 v 14.9688 H 2790.54 Z"/><path style="fill:none;stroke:#000;stroke-width:7.5;stroke-linecap:square;stroke-linejoin:miter;stroke-miterlimit:10;stroke-dasharray:none;stroke-opacity:1" id="path192" d="m 2790.54,4880.66 h 29.9414 v 14.9688 H 2790.54 Z"/><path style="fill:#000;fill-opacity:1;fill-rule:nonzero;stroke:none" id="path194" d="m 2820.48,4760.89 h 37.4258 v 14.9688 H 2820.48 Z"/><path style="fill:none;stroke:#000;stroke-width:7.5;stroke-linecap:square;stroke-linejoin:miter;stroke-miterlimit:10;stroke-dasharray:none;stroke-opacity:1" id="path196" d="m 2820.48,4760.89 h 37.4258 v 14.9688 H 2820.48 Z"/><path style="fill:#000;fill-opacity:1;fill-rule:nonzero;stroke:none" id="path198" d="m 2857.91,4656.11 h 29.9375 v 14.9688 H 2857.91 Z"/><path style="fill:none;stroke:#000;stroke-width:7.5;stroke-linecap:square;stroke-linejoin:miter;stroke-miterlimit:10;stroke-dasharray:none;stroke-opacity:1" id="path200" d="m 2857.91,4656.11 h 29.9375 v 14.9688 H 2857.91 Z"/><path style="fill:#000;fill-opacity:1;fill-rule:nonzero;stroke:none" id="path202" d="m 2887.84,4566.29 h 37.4258 v 14.9688 H 2887.84 Z"/><path style="fill:none;stroke:#000;stroke-width:7.5;stroke-linecap:square;stroke-linejoin:miter;stroke-miterlimit:10;stroke-dasharray:none;stroke-opacity:1" id="path204" d="m 2887.84,4566.29 h 37.4258 v 14.9688 H 2887.84 Z"/><path style="fill:#000;fill-opacity:1;fill-rule:nonzero;stroke:none" id="path206" d="m 2925.27,4483.95 h 29.9414 v 14.9727 H 2925.27 Z"/><path style="fill:none;stroke:#000;stroke-width:7.5;stroke-linecap:square;stroke-linejoin:miter;stroke-miterlimit:10;stroke-dasharray:none;stroke-opacity:1" id="path208" d="m 2925.27,4483.95 h 29.9414 v 14.9727 H 2925.27 Z"/><path style="fill:#000;fill-opacity:1;fill-rule:nonzero;stroke:none" id="path210" d="m 2955.21,4409.1 h 37.4258 v 14.9688 H 2955.21 Z"/><path style="fill:none;stroke:#000;stroke-width:7.5;stroke-linecap:square;stroke-linejoin:miter;stroke-miterlimit:10;stroke-dasharray:none;stroke-opacity:1" id="path212" d="m 2955.21,4409.1 h 37.4258 v 14.9688 H 2955.21 Z"/><path style="fill:#000;fill-opacity:1;fill-rule:nonzero;stroke:none" id="path214" d="m 2992.64,4349.22 h 29.9375 v 14.9727 H 2992.64 Z"/><path style="fill:none;stroke:#000;stroke-width:7.5;stroke-linecap:square;stroke-linejoin:miter;stroke-miterlimit:10;stroke-dasharray:none;stroke-opacity:1" id="path216" d="m 2992.64,4349.22 h 29.9375 v 14.9727 H 2992.64 Z"/><path style="fill:#000;fill-opacity:1;fill-rule:nonzero;stroke:none" id="path218" d="m 3022.57,4296.82 h 37.4258 v 14.9727 H 3022.57 Z"/><path style="fill:none;stroke:#000;stroke-width:7.5;stroke-linecap:square;stroke-linejoin:miter;stroke-miterlimit:10;stroke-dasharray:none;stroke-opacity:1" id="path220" d="m 3022.57,4296.82 h 37.4258 v 14.9727 H 3022.57 Z"/><path style="fill:#000;fill-opacity:1;fill-rule:nonzero;stroke:none" id="path222" d="m 3060,4251.91 h 29.9414 v 14.9727 H 3060 Z"/><path style="fill:none;stroke:#000;stroke-width:7.5;stroke-linecap:square;stroke-linejoin:miter;stroke-miterlimit:10;stroke-dasharray:none;stroke-opacity:1" id="path224" d="m 3060,4251.91 h 29.9414 v 14.9727 H 3060 Z"/><path style="fill:#000;fill-opacity:1;fill-rule:nonzero;stroke:none" id="path226" d="m 3089.94,4214.49 h 37.4219 v 14.9727 H 3089.94 Z"/><path style="fill:none;stroke:#000;stroke-width:7.5;stroke-linecap:square;stroke-linejoin:miter;stroke-miterlimit:10;stroke-dasharray:none;stroke-opacity:1" id="path228" d="m 3089.94,4214.49 h 37.4219 v 14.9727 H 3089.94 Z"/><path style="fill:#000;fill-opacity:1;fill-rule:nonzero;stroke:none" id="path230" d="m 3127.36,4177.07 h 29.9414 v 14.9688 H 3127.36 Z"/><path style="fill:none;stroke:#000;stroke-width:7.5;stroke-linecap:square;stroke-linejoin:miter;stroke-miterlimit:10;stroke-dasharray:none;stroke-opacity:1" id="path232" d="m 3127.36,4177.07 h 29.9414 v 14.9688 H 3127.36 Z"/><path style="fill:#000;fill-opacity:1;fill-rule:nonzero;stroke:none" id="path234" d="m 3157.3,4147.13 h 37.4258 v 14.9688 H 3157.3 Z"/><path style="fill:none;stroke:#000;stroke-width:7.5;stroke-linecap:square;stroke-linejoin:miter;stroke-miterlimit:10;stroke-dasharray:none;stroke-opacity:1" id="path236" d="m 3157.3,4147.13 h 37.4258 v 14.9688 H 3157.3 Z"/><path style="fill:#000;fill-opacity:1;fill-rule:nonzero;stroke:none" id="path238" d="m 3194.73,4124.67 h 29.9414 v 14.9727 H 3194.73 Z"/><path style="fill:none;stroke:#000;stroke-width:7.5;stroke-linecap:square;stroke-linejoin:miter;stroke-miterlimit:10;stroke-dasharray:none;stroke-opacity:1" id="path240" d="m 3194.73,4124.67 h 29.9414 v 14.9727 H 3194.73 Z"/><path style="fill:#000;fill-opacity:1;fill-rule:nonzero;stroke:none" id="path242" d="m 3224.67,4102.21 h 37.4219 v 14.9688 H 3224.67 Z"/><path style="fill:none;stroke:#000;stroke-width:7.5;stroke-linecap:square;stroke-linejoin:miter;stroke-miterlimit:10;stroke-dasharray:none;stroke-opacity:1" id="path244" d="m 3224.67,4102.21 h 37.4219 v 14.9688 H 3224.67 Z"/><path style="fill:#000;fill-opacity:1;fill-rule:nonzero;stroke:none" id="path246" d="m 3262.09,4079.76 h 29.9414 v 14.9688 H 3262.09 Z"/><path style="fill:none;stroke:#000;stroke-width:7.5;stroke-linecap:square;stroke-linejoin:miter;stroke-miterlimit:10;stroke-dasharray:none;stroke-opacity:1" id="path248" d="m 3262.09,4079.76 h 29.9414 v 14.9688 H 3262.09 Z"/><path style="fill:#000;fill-opacity:1;fill-rule:nonzero;stroke:none" id="path250" d="m 3292.04,4064.79 h 37.4258 v 14.9727 H 3292.04 Z"/><path style="fill:none;stroke:#000;stroke-width:7.5;stroke-linecap:square;stroke-linejoin:miter;stroke-miterlimit:10;stroke-dasharray:none;stroke-opacity:1" id="path252" d="m 3292.04,4064.79 h 37.4258 v 14.9727 H 3292.04 Z"/><path style="fill:#000;fill-opacity:1;fill-rule:nonzero;stroke:none" id="path254" d="m 3329.46,4049.82 h 29.9375 v 14.9688 H 3329.46 Z"/><path style="fill:none;stroke:#000;stroke-width:7.5;stroke-linecap:square;stroke-linejoin:miter;stroke-miterlimit:10;stroke-dasharray:none;stroke-opacity:1" id="path256" d="m 3329.46,4049.82 h 29.9375 v 14.9688 H 3329.46 Z"/><path style="fill:#000;fill-opacity:1;fill-rule:nonzero;stroke:none" id="path258" d="m 3359.4,4034.85 h 37.4258 v 14.9688 H 3359.4 Z"/><path style="fill:none;stroke:#000;stroke-width:7.5;stroke-linecap:square;stroke-linejoin:miter;stroke-miterlimit:10;stroke-dasharray:none;stroke-opacity:1" id="path260" d="m 3359.4,4034.85 h 37.4258 v 14.9688 H 3359.4 Z"/><path style="fill:#000;fill-opacity:1;fill-rule:nonzero;stroke:none" id="path262" d="m 3396.82,4027.36 h 29.9414 v 14.9727 H 3396.82 Z"/><path style="fill:none;stroke:#000;stroke-width:7.5;stroke-linecap:square;stroke-linejoin:miter;stroke-miterlimit:10;stroke-dasharray:none;stroke-opacity:1" id="path264" d="m 3396.82,4027.36 h 29.9414 v 14.9727 H 3396.82 Z"/><path style="fill:#000;fill-opacity:1;fill-rule:nonzero;stroke:none" id="path266" d="m 3426.77,4012.39 h 37.4258 v 14.9688 H 3426.77 Z"/><path style="fill:none;stroke:#000;stroke-width:7.5;stroke-linecap:square;stroke-linejoin:miter;stroke-miterlimit:10;stroke-dasharray:none;stroke-opacity:1" id="path268" d="m 3426.77,4012.39 h 37.4258 v 14.9688 H 3426.77 Z"/><path style="fill:#000;fill-opacity:1;fill-rule:nonzero;stroke:none" id="path270" d="m 3464.19,4004.91 h 29.9375 v 14.9688 H 3464.19 Z"/><path style="fill:none;stroke:#000;stroke-width:7.5;stroke-linecap:square;stroke-linejoin:miter;stroke-miterlimit:10;stroke-dasharray:none;stroke-opacity:1" id="path272" d="m 3464.19,4004.91 h 29.9375 v 14.9688 H 3464.19 Z"/><path style="fill:#000;fill-opacity:1;fill-rule:nonzero;stroke:none" id="path274" d="m 3494.13,3997.43 h 37.4258 v 14.9688 H 3494.13 Z"/><path style="fill:none;stroke:#000;stroke-width:7.5;stroke-linecap:square;stroke-linejoin:miter;stroke-miterlimit:10;stroke-dasharray:none;stroke-opacity:1" id="path276" d="m 3494.13,3997.43 h 37.4258 v 14.9688 H 3494.13 Z"/><path style="fill:#000;fill-opacity:1;fill-rule:nonzero;stroke:none" id="path278" d="m 3531.55,3989.94 h 29.9414 v 14.9688 H 3531.55 Z"/><path style="fill:none;stroke:#000;stroke-width:7.5;stroke-linecap:square;stroke-linejoin:miter;stroke-miterlimit:10;stroke-dasharray:none;stroke-opacity:1" id="path280" d="m 3531.55,3989.94 h 29.9414 v 14.9688 H 3531.55 Z"/><path style="fill:#000;fill-opacity:1;fill-rule:nonzero;stroke:none" id="path282" d="m 3561.5,3982.45 h 37.4258 v 14.9727 H 3561.5 Z"/><path style="fill:none;stroke:#000;stroke-width:7.5;stroke-linecap:square;stroke-linejoin:miter;stroke-miterlimit:10;stroke-dasharray:none;stroke-opacity:1" id="path284" d="m 3561.5,3982.45 h 37.4258 v 14.9727 H 3561.5 Z"/><path style="fill:#000;fill-opacity:1;fill-rule:nonzero;stroke:none" id="path286" d="m 3598.92,3982.45 h 29.9375 v 14.9727 H 3598.92 Z"/><path style="fill:none;stroke:#000;stroke-width:7.5;stroke-linecap:square;stroke-linejoin:miter;stroke-miterlimit:10;stroke-dasharray:none;stroke-opacity:1" id="path288" d="m 3598.92,3982.45 h 29.9375 v 14.9727 H 3598.92 Z"/><path style="fill:#000;fill-opacity:1;fill-rule:nonzero;stroke:none" id="path290" d="m 3628.86,3974.97 h 37.4258 v 14.9727 H 3628.86 Z"/><path style="fill:none;stroke:#000;stroke-width:7.5;stroke-linecap:square;stroke-linejoin:miter;stroke-miterlimit:10;stroke-dasharray:none;stroke-opacity:1" id="path292" d="m 3628.86,3974.97 h 37.4258 v 14.9727 H 3628.86 Z"/><path style="fill:#000;fill-opacity:1;fill-rule:nonzero;stroke:none" id="path294" d="m 3666.29,3974.97 h 29.9414 v 14.9727 H 3666.29 Z"/><path style="fill:none;stroke:#000;stroke-width:7.5;stroke-linecap:square;stroke-linejoin:miter;stroke-miterlimit:10;stroke-dasharray:none;stroke-opacity:1" id="path296" d="m 3666.29,3974.97 h 29.9414 v 14.9727 H 3666.29 Z"/><path style="fill:#000;fill-opacity:1;fill-rule:nonzero;stroke:none" id="path298" d="m 3696.23,3967.48 h 37.4219 v 14.9727 H 3696.23 Z"/><path style="fill:none;stroke:#000;stroke-width:7.5;stroke-linecap:square;stroke-linejoin:miter;stroke-miterlimit:10;stroke-dasharray:none;stroke-opacity:1" id="path300" d="m 3696.23,3967.48 h 37.4219 v 14.9727 H 3696.23 Z"/><path style="fill:#000;fill-opacity:1;fill-rule:nonzero;stroke:none" id="path302" d="m 3733.65,3967.48 h 29.9414 v 14.9727 H 3733.65 Z"/><path style="fill:none;stroke:#000;stroke-width:7.5;stroke-linecap:square;stroke-linejoin:miter;stroke-miterlimit:10;stroke-dasharray:none;stroke-opacity:1" id="path304" d="m 3733.65,3967.48 h 29.9414 v 14.9727 H 3733.65 Z"/><path style="fill:#000;fill-opacity:1;fill-rule:nonzero;stroke:none" id="path306" d="m 3763.59,3967.48 h 37.4258 v 14.9727 H 3763.59 Z"/><path style="fill:none;stroke:#000;stroke-width:7.5;stroke-linecap:square;stroke-linejoin:miter;stroke-miterlimit:10;stroke-dasharray:none;stroke-opacity:1" id="path308" d="m 3763.59,3967.48 h 37.4258 v 14.9727 H 3763.59 Z"/><path style="fill:#000;fill-opacity:1;fill-rule:nonzero;stroke:none" id="path310" d="m 3801.02,3960 h 29.9414 v 14.9688 H 3801.02 Z"/><path style="fill:none;stroke:#000;stroke-width:7.5;stroke-linecap:square;stroke-linejoin:miter;stroke-miterlimit:10;stroke-dasharray:none;stroke-opacity:1" id="path312" d="m 3801.02,3960 h 29.9414 v 14.9688 H 3801.02 Z"/><path style="fill:#000;fill-opacity:1;fill-rule:nonzero;stroke:none" id="path314" d="m 3830.96,3960 h 37.4219 v 14.9688 H 3830.96 Z"/><path style="fill:none;stroke:#000;stroke-width:7.5;stroke-linecap:square;stroke-linejoin:miter;stroke-miterlimit:10;stroke-dasharray:none;stroke-opacity:1" id="path316" d="m 3830.96,3960 h 37.4219 v 14.9688 H 3830.96 Z"/><path style="fill:#000;fill-opacity:1;fill-rule:nonzero;stroke:none" id="path318" d="m 3868.38,3960 h 29.9414 v 14.9688 H 3868.38 Z"/><path style="fill:none;stroke:#000;stroke-width:7.5;stroke-linecap:square;stroke-linejoin:miter;stroke-miterlimit:10;stroke-dasharray:none;stroke-opacity:1" id="path320" d="m 3868.38,3960 h 29.9414 v 14.9688 H 3868.38 Z"/><path style="fill:#000;fill-opacity:1;fill-rule:nonzero;stroke:none" id="path322" d="m 3898.32,3960 h 37.4258 v 14.9688 H 3898.32 Z"/><path style="fill:none;stroke:#000;stroke-width:7.5;stroke-linecap:square;stroke-linejoin:miter;stroke-miterlimit:10;stroke-dasharray:none;stroke-opacity:1" id="path324" d="m 3898.32,3960 h 37.4258 v 14.9688 H 3898.32 Z"/><path style="fill:#000;fill-opacity:1;fill-rule:nonzero;stroke:none" id="path326" d="m 3935.75,3960 h 29.9375 v 14.9688 H 3935.75 Z"/><path style="fill:none;stroke:#000;stroke-width:7.5;stroke-linecap:square;stroke-linejoin:miter;stroke-miterlimit:10;stroke-dasharray:none;stroke-opacity:1" id="path328" d="m 3935.75,3960 h 29.9375 v 14.9688 H 3935.75 Z"/><path style="fill:#000;fill-opacity:1;fill-rule:nonzero;stroke:none" id="path330" d="m 3965.68,3952.52 h 37.4258 v 14.9688 H 3965.68 Z"/><path style="fill:none;stroke:#000;stroke-width:7.5;stroke-linecap:square;stroke-linejoin:miter;stroke-miterlimit:10;stroke-dasharray:none;stroke-opacity:1" id="path332" d="m 3965.68,3952.52 h 37.4258 v 14.9688 H 3965.68 Z"/><path style="fill:#000;fill-opacity:1;fill-rule:nonzero;stroke:none" id="path334" d="m 4003.11,3952.52 h 29.9414 v 14.9688 H 4003.11 Z"/><path style="fill:none;stroke:#000;stroke-width:7.5;stroke-linecap:square;stroke-linejoin:miter;stroke-miterlimit:10;stroke-dasharray:none;stroke-opacity:1" id="path336" d="m 4003.11,3952.52 h 29.9414 v 14.9688 H 4003.11 Z"/><path style="fill:#000;fill-opacity:1;fill-rule:nonzero;stroke:none" id="path338" d="m 4033.05,3952.52 h 37.4258 v 14.9688 H 4033.05 Z"/><path style="fill:none;stroke:#000;stroke-width:7.5;stroke-linecap:square;stroke-linejoin:miter;stroke-miterlimit:10;stroke-dasharray:none;stroke-opacity:1" id="path340" d="m 4033.05,3952.52 h 37.4258 v 14.9688 H 4033.05 Z"/><path style="fill:#000;fill-opacity:1;fill-rule:nonzero;stroke:none" id="path342" d="m 4070.48,3952.52 h 29.9375 v 14.9688 H 4070.48 Z"/><path style="fill:none;stroke:#000;stroke-width:7.5;stroke-linecap:square;stroke-linejoin:miter;stroke-miterlimit:10;stroke-dasharray:none;stroke-opacity:1" id="path344" d="m 4070.48,3952.52 h 29.9375 v 14.9688 H 4070.48 Z"/><path style="fill:#000;fill-opacity:1;fill-rule:nonzero;stroke:none" id="path346" d="m 4100.41,3952.52 h 37.4258 v 14.9688 H 4100.41 Z"/><path style="fill:none;stroke:#000;stroke-width:7.5;stroke-linecap:square;stroke-linejoin:miter;stroke-miterlimit:10;stroke-dasharray:none;stroke-opacity:1" id="path348" d="m 4100.41,3952.52 h 37.4258 v 14.9688 H 4100.41 Z"/><path style="fill:#000;fill-opacity:1;fill-rule:nonzero;stroke:none" id="path350" d="m 4137.84,3952.52 h 29.9414 v 14.9688 H 4137.84 Z"/><path style="fill:none;stroke:#000;stroke-width:7.5;stroke-linecap:square;stroke-linejoin:miter;stroke-miterlimit:10;stroke-dasharray:none;stroke-opacity:1" id="path352" d="m 4137.84,3952.52 h 29.9414 v 14.9688 H 4137.84 Z"/><path style="fill:#000;fill-opacity:1;fill-rule:nonzero;stroke:none" id="path354" d="m 4167.78,3952.52 h 37.4219 v 14.9688 H 4167.78 Z"/><path style="fill:none;stroke:#000;stroke-width:7.5;stroke-linecap:square;stroke-linejoin:miter;stroke-miterlimit:10;stroke-dasharray:none;stroke-opacity:1" id="path356" d="m 4167.78,3952.52 h 37.4219 v 14.9688 H 4167.78 Z"/><path style="fill:#000;fill-opacity:1;fill-rule:nonzero;stroke:none" id="path358" d="m 4205.21,3952.52 h 29.9375 v 14.9688 H 4205.21 Z"/><path style="fill:none;stroke:#000;stroke-width:7.5;stroke-linecap:square;stroke-linejoin:miter;stroke-miterlimit:10;stroke-dasharray:none;stroke-opacity:1" id="path360" d="m 4205.21,3952.52 h 29.9375 v 14.9688 H 4205.21 Z"/><path style="fill:#000;fill-opacity:1;fill-rule:nonzero;stroke:none" id="path362" d="m 4235.14,3952.52 h 37.4258 v 14.9688 H 4235.14 Z"/><path style="fill:none;stroke:#000;stroke-width:7.5;stroke-linecap:square;stroke-linejoin:miter;stroke-miterlimit:10;stroke-dasharray:none;stroke-opacity:1" id="path364" d="m 4235.14,3952.52 h 37.4258 v 14.9688 H 4235.14 Z"/><path style="fill:#000;fill-opacity:1;fill-rule:nonzero;stroke:none" id="path366" d="m 4272.57,3952.52 h 29.9414 v 14.9688 H 4272.57 Z"/><path style="fill:none;stroke:#000;stroke-width:7.5;stroke-linecap:square;stroke-linejoin:miter;stroke-miterlimit:10;stroke-dasharray:none;stroke-opacity:1" id="path368" d="m 4272.57,3952.52 h 29.9414 v 14.9688 H 4272.57 Z"/><path style="fill:#000;fill-opacity:1;fill-rule:nonzero;stroke:none" id="path370" d="m 4302.51,3952.52 h 37.4219 v 14.9688 H 4302.51 Z"/><path style="fill:none;stroke:#000;stroke-width:7.5;stroke-linecap:square;stroke-linejoin:miter;stroke-miterlimit:10;stroke-dasharray:none;stroke-opacity:1" id="path372" d="m 4302.51,3952.52 h 37.4219 v 14.9688 H 4302.51 Z"/><path style="fill:#000;fill-opacity:1;fill-rule:nonzero;stroke:none" id="path374" d="m 4339.93,3952.52 h 29.9414 v 14.9688 H 4339.93 Z"/><path style="fill:none;stroke:#000;stroke-width:7.5;stroke-linecap:square;stroke-linejoin:miter;stroke-miterlimit:10;stroke-dasharray:none;stroke-opacity:1" id="path376" d="m 4339.93,3952.52 h 29.9414 v 14.9688 H 4339.93 Z"/><path style="fill:#000;fill-opacity:1;fill-rule:nonzero;stroke:none" id="path378" d="m 4369.88,3952.52 h 37.4258 v 14.9688 H 4369.88 Z"/><path style="fill:none;stroke:#000;stroke-width:7.5;stroke-linecap:square;stroke-linejoin:miter;stroke-miterlimit:10;stroke-dasharray:none;stroke-opacity:1" id="path380" d="m 4369.88,3952.52 h 37.4258 v 14.9688 H 4369.88 Z"/><path style="fill:#000;fill-opacity:1;fill-rule:nonzero;stroke:none" id="path382" d="m 4407.3,3952.52 h 29.9375 v 14.9688 H 4407.3 Z"/><path style="fill:none;stroke:#000;stroke-width:7.5;stroke-linecap:square;stroke-linejoin:miter;stroke-miterlimit:10;stroke-dasharray:none;stroke-opacity:1" id="path384" d="m 4407.3,3952.52 h 29.9375 v 14.9688 H 4407.3 Z"/><path style="fill:#000;fill-opacity:1;fill-rule:nonzero;stroke:none" id="path386" d="m 4437.24,3952.52 h 37.4258 v 14.9688 H 4437.24 Z"/><path style="fill:none;stroke:#000;stroke-width:7.5;stroke-linecap:square;stroke-linejoin:miter;stroke-miterlimit:10;stroke-dasharray:none;stroke-opacity:1" id="path388" d="m 4437.24,3952.52 h 37.4258 v 14.9688 H 4437.24 Z"/><path style="fill:#000;fill-opacity:1;fill-rule:nonzero;stroke:none" id="path390" d="m 4474.66,3952.52 h 29.9414 v 14.9688 H 4474.66 Z"/><path style="fill:none;stroke:#000;stroke-width:7.5;stroke-linecap:square;stroke-linejoin:miter;stroke-miterlimit:10;stroke-dasharray:none;stroke-opacity:1" id="path392" d="m 4474.66,3952.52 h 29.9414 v 14.9688 H 4474.66 Z"/><path style="fill:#000;fill-opacity:1;fill-rule:nonzero;stroke:none" id="path394" d="m 4504.61,3952.52 h 37.4258 v 14.9688 H 4504.61 Z"/><path style="fill:none;stroke:#000;stroke-width:7.5;stroke-linecap:square;stroke-linejoin:miter;stroke-miterlimit:10;stroke-dasharray:none;stroke-opacity:1" id="path396" d="m 4504.61,3952.52 h 37.4258 v 14.9688 H 4504.61 Z"/><path style="fill:#000;fill-opacity:1;fill-rule:nonzero;stroke:none" id="path398" d="m 4542.03,3952.52 h 29.9375 v 14.9688 H 4542.03 Z"/><path style="fill:none;stroke:#000;stroke-width:7.5;stroke-linecap:square;stroke-linejoin:miter;stroke-miterlimit:10;stroke-dasharray:none;stroke-opacity:1" id="path400" d="m 4542.03,3952.52 h 29.9375 v 14.9688 H 4542.03 Z"/><path style="fill:#000;fill-opacity:1;fill-rule:nonzero;stroke:none" id="path402" d="m 4571.97,3952.52 h 37.4258 v 14.9688 H 4571.97 Z"/><path style="fill:none;stroke:#000;stroke-width:7.5;stroke-linecap:square;stroke-linejoin:miter;stroke-miterlimit:10;stroke-dasharray:none;stroke-opacity:1" id="path404" d="m 4571.97,3952.52 h 37.4258 v 14.9688 H 4571.97 Z"/><path style="fill:#000;fill-opacity:1;fill-rule:nonzero;stroke:none" id="path406" d="m 4609.39,3952.52 h 29.9414 v 14.9688 H 4609.39 Z"/><path style="fill:none;stroke:#000;stroke-width:7.5;stroke-linecap:square;stroke-linejoin:miter;stroke-miterlimit:10;stroke-dasharray:none;stroke-opacity:1" id="path408" d="m 4609.39,3952.52 h 29.9414 v 14.9688 H 4609.39 Z"/><path style="fill:#000;fill-opacity:1;fill-rule:nonzero;stroke:none" id="path410" d="m 4639.34,3952.52 h 37.4258 v 14.9688 H 4639.34 Z"/><path style="fill:none;stroke:#000;stroke-width:7.5;stroke-linecap:square;stroke-linejoin:miter;stroke-miterlimit:10;stroke-dasharray:none;stroke-opacity:1" id="path412" d="m 4639.34,3952.52 h 37.4258 v 14.9688 H 4639.34 Z"/><path style="fill:#000;fill-opacity:1;fill-rule:nonzero;stroke:none" id="path414" d="m 4676.76,3952.52 h 29.9375 v 14.9688 H 4676.76 Z"/><path style="fill:none;stroke:#000;stroke-width:7.5;stroke-linecap:square;stroke-linejoin:miter;stroke-miterlimit:10;stroke-dasharray:none;stroke-opacity:1" id="path416" d="m 4676.76,3952.52 h 29.9375 v 14.9688 H 4676.76 Z"/><path style="fill:#000;fill-opacity:1;fill-rule:nonzero;stroke:none" id="path418" d="m 4706.7,3952.52 h 37.4258 v 14.9688 H 4706.7 Z"/><path style="fill:none;stroke:#000;stroke-width:7.5;stroke-linecap:square;stroke-linejoin:miter;stroke-miterlimit:10;stroke-dasharray:none;stroke-opacity:1" id="path420" d="m 4706.7,3952.52 h 37.4258 v 14.9688 H 4706.7 Z"/></g></g></g><path style="fill:none;stroke:#000;stroke-width:.8088274;stroke-linecap:butt;stroke-linejoin:miter;stroke-miterlimit:4;stroke-dasharray:none;stroke-opacity:1;marker-start:url(#Arrow1Lstart);marker-end:url(#Arrow1Lend)" id="path4075" d="M 137.36019,366.83538 V 503.707"/><text style="font-style:normal;font-variant:normal;font-weight:400;font-stretch:normal;font-size:12px;line-height:1.25;font-family:sans-serif;-inkscape-font-specification:sans-serif;letter-spacing:0;word-spacing:0;fill:#000;fill-opacity:1;stroke:none;stroke-width:.75" id="text3155" x="363.631" y="-373.629" transform="scale(1,-1)" xml:space="preserve"><tspan id="tspan3153" x="363.631" y="-373.629" style="font-style:normal;font-variant:normal;font-weight:400;font-stretch:normal;font-family:sans-serif;-inkscape-font-specification:sans-serif;stroke-width:.75">time (samples)</tspan></text><path style="fill:none;stroke:#000;stroke-width:1.40093017;stroke-linecap:butt;stroke-linejoin:miter;stroke-miterlimit:4;stroke-dasharray:none;stroke-opacity:1;marker-start:url(#Arrow1Lstart-3);marker-end:url(#Arrow1Lend-7)" id="path4075-3" d="M 103.73721,393.55886 H 514.35207"/></g></svg>